PathFileType	4	(X/Y/Z)	 s10c0403.trc
DataRate	CameraRate	NumFrames	NumMarkers	Units	OrigDataRate	OrigDataStartFrame	OrigNumFrames
200	200	6	49	mm	200	751	2000
Frame#	Time	racr			lacr			c7			jug			rlel			rdr			llel			ldr			s2			lic			ric			lasi			rasi			rpsi			lpsi			rgt			lgt			rth1			rth2			rth3			rth4			rlfc			rmfc			rsh1			rsh2			rsh3			rsh4			rlmal			rmmal			rcal			rtoe			rmt5			lth1			lth2			lth4			lth3			llfc			lmfc			llmal			lcal			lmt5			lsh1			lsh2			lsh3			lsh4			ltoe			SBIKE			LBIKE			RBIKE			
		X1	Y1	Z1	X2	Y2	Z2	X3	Y3	Z3	X4	Y4	Z4	X5	Y5	Z5	X6	Y6	Z6	X7	Y7	Z7	X8	Y8	Z8	X9	Y9	Z9	X10	Y10	Z10	X11	Y11	Z11	X12	Y12	Z12	X13	Y13	Z13	X14	Y14	Z14	X15	Y15	Z15	X16	Y16	Z16	X17	Y17	Z17	X18	Y18	Z18	X19	Y19	Z19	X20	Y20	Z20	X21	Y21	Z21	X22	Y22	Z22	X23	Y23	Z23	X24	Y24	Z24	X25	Y25	Z25	X26	Y26	Z26	X27	Y27	Z27	X28	Y28	Z28	X29	Y29	Z29	X30	Y30	Z30	X31	Y31	Z31	X32	Y32	Z32	X33	Y33	Z33	X34	Y34	Z34	X35	Y35	Z35	X36	Y36	Z36	X37	Y37	Z37	X38	Y38	Z38	X39	Y39	Z39	X40	Y40	Z40	X41	Y41	Z41	X42	Y42	Z42	X43	Y43	Z43	X44	Y44	Z44	X45	Y45	Z45	X46	Y46	Z46	X47	Y47	Z47	X48	Y48	Z48	X49	Y49	Z49	
751	3.7550	633.989774	1363.826449	-65.925810	694.248890	1334.923592	-358.274117	646.443025	1368.088367	-210.453407	648.292096	1220.597717	-197.348623	554.890925	1110.542951	32.468520	626.418612	907.085091	-1.336118	583.849033	1096.951906	-498.078125	651.871569	912.883054	-407.287594	131.891722	1145.276667	-167.672068	272.503854	1151.611831	-335.382082	334.092267	1140.034542	-70.578090	295.044104	1063.285260	-324.880519	328.006146	1057.605518	-73.585903	189.877077	1196.635376	-117.794569	172.466318	1208.519250	-229.209340	217.657104	1036.604177	4.804233	178.692682	1033.981596	-373.675589	238.133066	895.794867	18.697585	268.067650	815.001620	-2.210762	253.787677	731.276879	-10.623162	303.421020	821.358053	-10.511739	263.406397	625.434784	-25.200429	251.407797	619.994349	-142.130092	173.135854	546.488167	-2.234273	150.854221	462.055837	-16.942527	90.221820	401.082503	-28.496716	181.629756	448.408570	-36.440668	45.815171	317.472145	-45.250667	72.855141	316.792855	-123.602980	3.699700	343.154482	-96.088933	143.499923	143.517345	-94.162898	69.270591	187.909635	-33.883751	282.288073	958.232150	-392.044785	368.702154	949.165282	-385.965558	381.418961	982.588240	-376.788275	439.993646	896.604454	-387.423070	539.791576	860.073029	-374.973034	551.802279	841.722570	-246.991159	270.584273	583.757278	-372.402672	206.685159	582.031258	-331.920167	320.513875	442.746145	-383.454103	452.908460	780.988688	-399.896177	415.963483	701.696572	-391.808611	341.014010	652.741552	-387.328666	439.775206	682.657053	-368.611474	395.124133	425.983509	-325.968442	-204.221695	832.187832	-224.577701	-78.153621	82.025569	-423.764568	-102.622473	80.792473	-24.378031	
752	3.7600	635.638318	1363.697778	-66.416328	694.266517	1333.151262	-358.769640	647.299662	1367.814958	-210.931444	647.746322	1219.774075	-196.995253	556.328001	1111.165836	33.470103	626.454760	907.085969	-1.291761	582.756307	1096.213965	-499.206770	651.714316	912.527550	-407.672315	131.531482	1147.043730	-170.941196	273.363492	1152.977479	-335.963988	333.262009	1142.726156	-69.237546	296.364041	1064.426474	-325.327959	326.964965	1060.388564	-73.516058	188.863638	1198.821871	-120.808424	172.475944	1210.432492	-232.232467	216.464312	1040.145783	3.140752	179.066608	1034.329782	-375.473757	239.410102	897.728261	17.194117	271.456575	817.682240	-3.147804	259.157969	733.598572	-10.723305	306.551874	824.852779	-11.711925	270.407357	627.618776	-24.451187	259.919592	621.409623	-141.279861	177.801992	551.000584	-1.962978	153.498262	467.123859	-16.695033	91.637309	407.798884	-28.454799	184.140832	452.678762	-35.930863	44.872187	325.197171	-45.388722	73.097714	323.861536	-123.723064	4.284662	352.444158	-96.390634	135.289763	147.297133	-94.438033	62.985928	194.706070	-34.406331	280.288866	956.234848	-392.954700	366.621783	946.106067	-387.183193	379.829686	979.579767	-378.602372	437.104042	892.523508	-388.007494	537.199198	854.503180	-374.581553	548.515215	838.188508	-247.067364	271.623008	574.221915	-373.305773	207.299923	570.172794	-332.723398	326.964154	435.852481	-383.644001	450.452429	775.240721	-399.838379	414.808135	695.194368	-392.470987	340.699414	645.126891	-388.573961	438.910943	676.483789	-369.242503	402.191422	422.543850	-325.902759	-204.179685	832.185034	-224.621795	-78.133864	82.031191	-423.779794	-102.608093	80.795999	-24.390233	
753	3.7650	637.283747	1363.518481	-66.631526	694.265846	1331.397614	-358.970500	648.246052	1367.663206	-211.356809	645.934533	1219.600946	-196.897194	557.980829	1111.597123	34.676686	626.457628	907.114916	-1.303675	581.705274	1095.486896	-500.143681	651.821777	911.456738	-406.269812	131.036562	1148.918771	-174.460781	274.118600	1154.211395	-336.721797	331.643036	1145.250008	-69.147181	297.831319	1066.191909	-325.987709	325.830968	1063.183728	-73.240559	187.822945	1200.975173	-123.980309	173.233215	1212.261577	-235.588583	215.015283	1043.060421	0.897171	179.247167	1034.491619	-377.020956	240.936279	899.755420	15.827722	275.131533	820.318838	-4.045228	265.076961	736.005499	-10.617738	309.908544	828.487657	-12.912687	277.954868	629.730939	-23.747203	268.814421	622.656349	-140.452165	183.163715	555.602264	-1.561787	156.810610	472.258803	-16.352686	93.458609	414.691392	-28.396320	187.207037	457.087372	-35.394935	44.290061	332.915480	-45.431187	73.105423	331.273109	-123.801201	5.122219	361.936780	-96.672944	127.363175	151.595245	-94.892111	57.109079	201.816393	-34.920445	278.254473	954.088331	-393.872474	364.409656	942.567161	-388.227179	378.209636	975.990457	-380.336048	433.972420	887.914038	-388.263631	534.401617	848.247064	-374.551043	543.985470	833.083518	-247.837800	272.300434	563.967704	-374.370082	207.780845	557.493795	-333.482470	332.835396	428.231965	-383.687813	447.628919	768.205362	-399.496238	413.237585	687.587801	-392.864350	340.078620	636.187251	-389.266896	437.570662	669.323610	-369.575972	408.544119	418.632541	-325.732870	-204.146729	832.166276	-224.654887	-78.137675	82.008656	-423.775938	-102.599615	80.804359	-24.376042	
754	3.7700	638.896818	1363.315425	-66.618740	694.230516	1329.806161	-358.935414	649.114296	1367.571823	-211.595102	644.419526	1219.520005	-196.640680	559.229209	1111.841359	35.950515	626.438121	907.106150	-1.418419	580.752872	1094.843037	-500.898510	651.701434	911.287567	-406.780131	130.491664	1150.738605	-178.071163	274.839287	1155.325259	-337.850976	329.953780	1147.457167	-68.811356	299.328100	1067.957503	-326.529143	324.648756	1065.582476	-73.192687	186.801768	1202.822402	-127.181341	173.966849	1212.820466	-238.259607	213.723090	1045.666993	-1.188422	179.400170	1034.632093	-378.781653	242.524521	901.588695	14.563109	278.604786	822.920399	-5.085998	271.351665	738.282731	-10.648362	313.287307	832.103212	-14.028185	285.863288	631.879863	-23.237493	277.866743	624.088234	-139.804365	189.229001	560.026881	-1.111216	160.663079	477.555922	-15.902954	95.911478	421.644549	-28.121404	190.680728	461.579672	-34.969227	43.834165	341.109047	-45.358628	72.967339	338.991643	-123.841195	6.142277	371.556409	-96.829304	119.855624	156.532929	-95.016422	51.657126	209.424835	-35.208989	275.988197	951.857800	-395.184445	361.930227	938.959232	-389.378571	376.486316	972.159250	-381.968914	430.608039	882.932521	-388.805501	531.327080	841.245330	-374.502239	539.799755	827.560369	-248.236802	272.696806	552.824520	-374.645423	207.838986	544.527734	-334.045318	338.224449	420.284189	-383.720203	444.359148	760.287296	-399.467942	411.301131	678.636654	-392.474582	339.208930	626.260368	-389.911341	435.970539	661.295686	-369.489536	414.239969	414.160571	-325.565234	-204.246445	832.010322	-224.579487	-78.131102	82.002387	-423.779420	-102.593315	80.819172	-24.385888	
755	3.7750	640.367144	1363.066221	-66.350766	694.087526	1328.359898	-358.607301	649.893525	1367.555618	-211.668824	642.738190	1219.541316	-196.320629	560.338566	1112.063831	37.292908	626.459470	907.125189	-1.468689	579.791426	1094.253297	-501.403281	651.622894	911.189058	-407.267807	129.659019	1152.718438	-181.663893	275.511232	1156.218389	-339.187553	328.142388	1149.637458	-68.330904	300.580398	1069.631668	-326.555357	323.438980	1067.886407	-72.908164	185.848089	1204.623220	-130.498040	174.355549	1214.230008	-241.626646	212.288847	1048.420301	-2.976950	179.326415	1034.702934	-380.363223	244.225278	903.308892	13.404619	282.578293	825.548273	-5.831492	277.788305	740.684991	-10.695021	317.041189	835.736416	-14.981238	294.080507	634.111167	-22.818315	286.717906	625.809765	-139.299281	195.786345	564.627686	-0.541252	164.983565	482.960150	-15.527250	98.815579	428.724876	-27.666691	194.584902	466.091808	-34.870210	43.668671	349.202876	-45.275410	72.772532	346.981207	-123.846847	8.226721	382.563295	-94.318870	111.773181	161.355669	-95.937440	46.518775	217.185427	-35.528884	273.795352	949.674636	-396.369299	359.426419	935.090171	-390.528306	374.709583	967.859757	-383.458913	427.024346	877.612794	-389.112870	527.935622	833.595729	-374.540659	535.450676	821.219595	-248.716496	272.894134	541.014178	-374.849064	207.493227	530.704852	-334.139272	342.999073	411.823179	-383.673102	440.773038	751.255196	-399.487935	409.454852	669.390357	-393.504592	338.176897	615.535327	-390.412081	434.044683	652.392161	-369.288004	419.184645	409.156867	-325.456265	-204.207790	831.978595	-224.631817	-78.115998	82.014996	-423.769923	-102.555154	80.831111	-24.367148	
756	3.7800	641.677944	1362.829693	-65.841112	693.849809	1327.235571	-357.943129	650.560148	1367.484917	-211.555371	641.725969	1219.510193	-195.673170	561.704660	1112.210956	38.617970	626.436621	907.152877	-1.606270	578.857214	1093.783658	-501.709723	651.568785	911.088943	-407.630191	129.511719	1153.924830	-184.262575	276.199041	1156.848777	-340.739397	326.402671	1151.521866	-68.142101	301.585817	1071.326461	-326.700159	322.150782	1069.855679	-72.954246	184.982632	1206.157367	-133.861914	174.623240	1215.432182	-245.185819	210.930291	1050.883856	-4.937832	179.001254	1034.471577	-381.883346	246.027154	904.919576	12.277921	286.588667	828.181970	-6.548023	284.542097	743.159009	-10.606570	320.589544	839.343884	-16.056894	302.416524	636.411445	-22.553917	296.218940	627.154390	-138.665309	202.732193	569.210532	0.136915	169.713569	488.448062	-15.184766	102.108855	435.995119	-27.122679	198.733259	471.062796	-34.709166	43.557950	357.705615	-45.188760	72.610075	355.205873	-123.821963	8.943851	392.088514	-95.377150	105.049111	167.471370	-96.153027	41.875321	225.650168	-35.799576	271.529363	947.395855	-397.602069	357.057828	930.968997	-391.377338	372.772896	963.548158	-384.643823	423.247050	872.138969	-389.519660	524.299408	824.991295	-374.178225	530.816469	813.695840	-248.407238	272.596937	528.951945	-375.214322	207.144876	516.381863	-333.998496	347.166423	402.876996	-383.618449	437.104681	741.539834	-399.617933	407.350522	658.927433	-393.571279	336.812609	604.158772	-390.950081	431.990732	643.072576	-369.383821	423.499518	403.729791	-325.445063	-204.203180	831.849905	-224.459261	-78.106016	82.021764	-423.797191	-102.556940	80.840958	-24.380105	
